# xmcd
#
# Track frame offsets:
#	150
#	17392
#	33073
#	50773
#	64654
#	81389
#	98104
#	111984
#	128842
#	142289
#	160052
#	173027
#	190549
#	211864
#	232252
#	249143
#	262520
#	279865
#	292248
#
# Disc length: 4139 seconds
#
# Revision: 0
# Processed by: cddbd v1.5.2PL0 Copyright (c) Steve Scherf et al.
# Submitted via: audiograbber 1.83.01
#
DISCID=04102913
DTITLE=Various Artist - Hott Country 191
DYEAR=2012
DGENRE=Country
TTITLE0=Lady Antebellum - Dancin' Away With My Heart
TTITLE1=Blake Shelton - Drink On It
TTITLE2=Taylor Swift - Ours
TTITLE3=Lauren Alaina - Georgia Peaches
TTITLE4=Rascal Flatts - Banjo
TTITLE5=Johnny Reid - Fire It Up
TTITLE6=Love And Theft - Angel Eyes
TTITLE7=Zac Brown Band - No Hurry
TTITLE8=Gord Bamford - Is It Friday Yet
TTITLE9=Taylor Swift Feat The Civil Wars - Safe and Sound
TTITLE10=Ronnie Dunn - Let The Cowboy Rock
TTITLE11=Little Wilies - Jolene
TTITLE12=Brantley Gilbert - You Don't Know Her Like I Do
TTITLE13=Paul Brandt - I Was There
TTITLE14=Kellie Pickler - 100 Proof
TTITLE15=Clayton Bellamy - Everyone's A Dreamer
TTITLE16=Jessie Farrell - Everything To Me
TTITLE17=Jerry Serada - My Heart's Got A Memory
TTITLE18=Sugarland Feat Matt Nathanson - Run
EXTD=January 2012
EXTT0=
EXTT1=
EXTT2=
EXTT3=
EXTT4=
EXTT5=
EXTT6=
EXTT7=
EXTT8=
EXTT9=
EXTT10=
EXTT11=
EXTT12=
EXTT13=
EXTT14=
EXTT15=
EXTT16=
EXTT17=
EXTT18=
PLAYORDER=
